IKResults
version=1
nRows=8
nColumns=34
inDegrees=yes

Units are S.I. units (second, meters, Newtons, ...)
If the header above contains a line with 'inDegrees', this indicates whether rotational values are in degrees (yes) or radians (no).

endheader
time	pelvis_tilt	pelvis_list	pelvis_rotation	pelvis_tx	pelvis_ty	pelvis_tz	hip_flexion_r	hip_adduction_r	hip_rotation_r	knee_angle_r	knee_angle_beta_r	ankle_angle_r	subtalar_angle_r	mtp_angle_r	hip_flexion_l	hip_adduction_l	hip_rotation_l	knee_angle_l	knee_angle_beta_l	ankle_angle_l	subtalar_angle_l	mtp_angle_l	lumbar_extension	lumbar_bending	lumbar_rotation	arm_flex_r	arm_add_r	arm_rot_r	elbow_flex_r	arm_flex_l	arm_add_l	arm_rot_l	elbow_flex_l
      0.00000000	     -0.36590368	    -30.02891279	     90.94846377	      1.19758062	      0.79196372	     -0.44948254	     25.05730828	     -7.77390811	      0.58448394	     81.25522574	      1.41817122	    -17.16686162	    -15.68669698	      0.00000000	     21.65184167	     -8.52097116	     -0.12947497	     76.23160648	      1.33049253	     -9.28477562	     -3.51462073	      0.00000000	     40.88211998	      0.31673048	      4.92248498	     87.61498338	   -104.01227249	     21.57431794	    113.83658052	     22.67765708	    -89.02017063	    -46.77612775	    114.66606375
      0.00500000	     -0.38196677	    -30.01985001	     91.04750402	      1.19756752	      0.79203364	     -0.44943304	     25.02326233	     -7.82586538	      0.49289339	     81.26788762	      1.41839222	    -16.97093969	    -15.51428947	      0.00000000	     21.67443853	     -8.47501693	     -0.02246187	     76.22654599	      1.33040420	     -9.26794730	     -3.38998585	      0.00000000	     40.84174284	      0.19122998	      4.85245544	     88.21658925	   -104.04489343	     22.14947402	    113.90921490	     23.21681680	    -89.06851216	    -46.29541923	    114.71320063
      0.01000000	     -0.36661930	    -30.02763479	     90.95785077	      1.19755832	      0.79198321	     -0.44946370	     25.05376243	     -7.77537287	      0.62162351	     81.28644516	      1.41871611	    -16.73329980	    -15.06555958	      0.00000000	     21.63766232	     -8.51737430	     -0.12324573	     76.21599571	      1.33022007	     -9.18584241	     -3.40056099	      0.00000000	     40.87669763	      0.30863625	      4.91638166	     87.70748246	   -104.00070603	     21.69342059	    113.78844217	     23.90746766	    -89.01677307	    -45.53228203	    114.69132508
      0.01500000	     -0.37754919	    -30.01976835	     91.03879662	      1.19760943	      0.79202697	     -0.44941225	     25.03029945	     -7.80184217	      0.51840412	     81.29107642	      1.41879694	    -16.88261968	    -15.39100002	      0.00000000	     21.66161548	     -8.48579064	     -0.03358612	     76.21765937	      1.33024910	     -9.26350476	     -3.41852818	      0.00000000	     40.83389299	      0.20681699	      4.86083600	     88.20239495	   -104.05144039	     22.14652538	    113.85095201	     24.60082337	    -89.06014321	    -44.88966910	    114.70088983
      0.02000000	     -0.36705264	    -30.04244900	     91.13869250	      1.19731019	      0.79192446	     -0.44960313	     24.99538084	     -7.87016632	      0.38877609	     81.24221891	      1.41794421	    -17.05266798	    -15.61200628	      0.00000000	     21.70378178	     -8.43516646	      0.06870039	     76.22899426	      1.33044694	     -9.26937169	     -3.50009932	      0.00000000	     40.92297835	      0.18581750	      4.77191644	     87.70543468	   -103.95597454	     21.72533296	    113.75907812	     25.82317968	    -89.05342272	    -43.55156322	    114.62758811
      0.02500000	     -0.36936943	    -30.04664590	     91.00922651	      1.19749827	      0.79189193	     -0.44964006	     25.02802153	     -7.80266025	      0.56611811	     81.26668895	      1.41837129	    -16.57554703	    -14.90051005	      0.00000000	     21.66360023	     -8.49515445	     -0.04911203	     76.22089890	      1.33030564	     -9.15280876	     -3.25579204	      0.00000000	     40.91183950	      0.27672282	      4.89360439	     87.73967826	   -104.03688280	     21.76303284	    113.73468871	     26.29904245	    -89.03871889	    -43.07543538	    114.65078956
      0.03000000	     -0.37000104	    -30.04697808	     90.98197590	      1.19752271	      0.79188140	     -0.44962750	     25.04237462	     -7.79503978	      0.57729236	     81.26853592	      1.41840353	    -16.75182151	    -15.12975588	      0.00000000	     21.65559024	     -8.50606824	     -0.08456906	     76.21194990	      1.33014946	     -9.18957476	     -3.32633568	      0.00000000	     40.90329630	      0.29939688	      4.92291750	     87.72370632	   -104.03468167	     21.72647102	    113.72114808	     26.71656661	    -89.02148422	    -42.65498602	    114.65442076
      0.03500000	     -0.37709828	    -30.04750810	     90.97173067	      1.19756459	      0.79187067	     -0.44963520	     25.04510657	     -7.78915004	      0.59984456	     81.27342122	      1.41848879	    -16.71774295	    -15.12922975	      0.00000000	     21.65426448	     -8.50536954	     -0.08746722	     76.21671347	      1.33023260	     -9.18034192	     -3.30148582	      0.00000000	     40.90099199	      0.30171910	      4.93413121	     87.73723874	   -104.05364030	     21.76777530	    113.77711505	     27.10917061	    -89.01839259	    -42.25989532	    114.65007718
